solid C1
   facet normal 0.000000e+000 1.000000e+000 0.000000e+000
      outer loop
         vertex 7.820000e+000 3.000000e+000 3.000000e+000
         vertex 7.820000e+000 3.000000e+000 0.000000e+000
         vertex 0.000000e+000 3.000000e+000 3.000000e+000
      endloop
   endfacet
   facet normal 0.000000e+000 1.000000e+000 0.000000e+000
      outer loop
         vertex 0.000000e+000 3.000000e+000 3.000000e+000
         vertex 7.820000e+000 3.000000e+000 0.000000e+000
         vertex 0.000000e+000 3.000000e+000 0.000000e+000
      endloop
   endfacet
   facet normal -1.000000e+000 0.000000e+000 0.000000e+000
      outer loop
         vertex 0.000000e+000 3.000000e+000 3.000000e+000
         vertex 0.000000e+000 3.000000e+000 0.000000e+000
         vertex 0.000000e+000 0.000000e+000 3.000000e+000
      endloop
   endfacet
   facet normal -1.000000e+000 0.000000e+000 0.000000e+000
      outer loop
         vertex 0.000000e+000 0.000000e+000 3.000000e+000
         vertex 0.000000e+000 3.000000e+000 0.000000e+000
         vertex 0.000000e+000 0.000000e+000 0.000000e+000
      endloop
   endfacet
   facet normal 0.000000e+000 0.000000e+000 1.000000e+000
      outer loop
         vertex 0.000000e+000 3.000000e+000 3.000000e+000
         vertex 0.000000e+000 0.000000e+000 3.000000e+000
         vertex 7.820000e+000 3.000000e+000 3.000000e+000
      endloop
   endfacet
   facet normal 0.000000e+000 0.000000e+000 1.000000e+000
      outer loop
         vertex 7.820000e+000 3.000000e+000 3.000000e+000
         vertex 0.000000e+000 0.000000e+000 3.000000e+000
         vertex 7.820000e+000 0.000000e+000 3.000000e+000
      endloop
   endfacet
   facet normal 1.000000e+000 0.000000e+000 0.000000e+000
      outer loop
         vertex 7.820000e+000 0.000000e+000 3.000000e+000
         vertex 7.820000e+000 0.000000e+000 0.000000e+000
         vertex 7.820000e+000 3.000000e+000 3.000000e+000
      endloop
   endfacet
   facet normal 1.000000e+000 0.000000e+000 0.000000e+000
      outer loop
         vertex 7.820000e+000 3.000000e+000 3.000000e+000
         vertex 7.820000e+000 0.000000e+000 0.000000e+000
         vertex 7.820000e+000 3.000000e+000 0.000000e+000
      endloop
   endfacet
   facet normal 0.000000e+000 0.000000e+000 -1.000000e+000
      outer loop
         vertex 0.000000e+000 0.000000e+000 0.000000e+000
         vertex 0.000000e+000 3.000000e+000 0.000000e+000
         vertex 7.820000e+000 0.000000e+000 0.000000e+000
      endloop
   endfacet
   facet normal 0.000000e+000 0.000000e+000 -1.000000e+000
      outer loop
         vertex 7.820000e+000 0.000000e+000 0.000000e+000
         vertex 0.000000e+000 3.000000e+000 0.000000e+000
         vertex 7.820000e+000 3.000000e+000 0.000000e+000
      endloop
   endfacet
   facet normal 0.000000e+000 -1.000000e+000 0.000000e+000
      outer loop
         vertex 0.000000e+000 0.000000e+000 3.000000e+000
         vertex 0.000000e+000 0.000000e+000 0.000000e+000
         vertex 7.820000e+000 0.000000e+000 3.000000e+000
      endloop
   endfacet
   facet normal 0.000000e+000 -1.000000e+000 0.000000e+000
      outer loop
         vertex 7.820000e+000 0.000000e+000 3.000000e+000
         vertex 0.000000e+000 0.000000e+000 0.000000e+000
         vertex 7.820000e+000 0.000000e+000 0.000000e+000
      endloop
   endfacet
endsolid