solid Container6
   facet normal -1.000000e+000 0.000000e+000 0.000000e+000
      outer loop
         vertex 0.000000e+000 2.500000e+001 2.500000e+001
         vertex 0.000000e+000 2.500000e+001 0.000000e+000
         vertex 0.000000e+000 0.000000e+000 2.500000e+001
      endloop
   endfacet
   facet normal -1.000000e+000 0.000000e+000 0.000000e+000
      outer loop
         vertex 0.000000e+000 0.000000e+000 2.500000e+001
         vertex 0.000000e+000 2.500000e+001 0.000000e+000
         vertex 0.000000e+000 0.000000e+000 0.000000e+000
      endloop
   endfacet
   facet normal 0.000000e+000 0.000000e+000 1.000000e+000
      outer loop
         vertex 2.500000e+001 2.500000e+001 2.500000e+001
         vertex 0.000000e+000 2.500000e+001 2.500000e+001
         vertex 2.500000e+001 0.000000e+000 2.500000e+001
      endloop
   endfacet
   facet normal 0.000000e+000 0.000000e+000 1.000000e+000
      outer loop
         vertex 2.500000e+001 0.000000e+000 2.500000e+001
         vertex 0.000000e+000 2.500000e+001 2.500000e+001
         vertex 0.000000e+000 0.000000e+000 2.500000e+001
      endloop
   endfacet
   facet normal 1.000000e+000 0.000000e+000 0.000000e+000
      outer loop
         vertex 2.500000e+001 2.500000e+001 0.000000e+000
         vertex 2.500000e+001 2.500000e+001 2.500000e+001
         vertex 2.500000e+001 0.000000e+000 0.000000e+000
      endloop
   endfacet
   facet normal 1.000000e+000 0.000000e+000 0.000000e+000
      outer loop
         vertex 2.500000e+001 0.000000e+000 0.000000e+000
         vertex 2.500000e+001 2.500000e+001 2.500000e+001
         vertex 2.500000e+001 0.000000e+000 2.500000e+001
      endloop
   endfacet
   facet normal -2.775558e-016 0.000000e+000 -1.000000e+000
      outer loop
         vertex 0.000000e+000 2.500000e+001 0.000000e+000
         vertex 2.500000e+001 2.500000e+001 0.000000e+000
         vertex 0.000000e+000 0.000000e+000 0.000000e+000
      endloop
   endfacet
   facet normal -2.775558e-016 0.000000e+000 -1.000000e+000
      outer loop
         vertex 0.000000e+000 0.000000e+000 0.000000e+000
         vertex 2.500000e+001 2.500000e+001 0.000000e+000
         vertex 2.500000e+001 0.000000e+000 0.000000e+000
      endloop
   endfacet
   facet normal 0.000000e+000 1.000000e+000 0.000000e+000
      outer loop
         vertex 2.500000e+001 2.500000e+001 2.500000e+001
         vertex 2.500000e+001 2.500000e+001 0.000000e+000
         vertex 0.000000e+000 2.500000e+001 2.500000e+001
      endloop
   endfacet
   facet normal 0.000000e+000 1.000000e+000 0.000000e+000
      outer loop
         vertex 0.000000e+000 2.500000e+001 2.500000e+001
         vertex 2.500000e+001 2.500000e+001 0.000000e+000
         vertex 0.000000e+000 2.500000e+001 0.000000e+000
      endloop
   endfacet
   facet normal 0.000000e+000 -1.000000e+000 0.000000e+000
      outer loop
         vertex 2.500000e+001 0.000000e+000 0.000000e+000
         vertex 2.500000e+001 0.000000e+000 2.500000e+001
         vertex 0.000000e+000 0.000000e+000 0.000000e+000
      endloop
   endfacet
   facet normal 0.000000e+000 -1.000000e+000 0.000000e+000
      outer loop
         vertex 0.000000e+000 0.000000e+000 0.000000e+000
         vertex 2.500000e+001 0.000000e+000 2.500000e+001
         vertex 0.000000e+000 0.000000e+000 2.500000e+001
      endloop
   endfacet
endsolid