solid C1
   facet normal 9.961947e-001 0.000000e+000 -8.715574e-002
      outer loop
         vertex 2.271209e-001 1.208217e-001 3.941066e-003
         vertex 2.322875e-001 1.259883e-001 6.299618e-002
         vertex 2.271209e-001 1.063033e-001 3.941066e-003
      endloop
   endfacet
   facet normal 9.961947e-001 0.000000e+000 -8.715574e-002
      outer loop
         vertex 2.271209e-001 1.063033e-001 3.941066e-003
         vertex 2.322875e-001 1.259883e-001 6.299618e-002
         vertex 2.322875e-001 1.063033e-001 6.299618e-002
      endloop
   endfacet
   facet normal 9.961947e-001 0.000000e+000 -8.715574e-002
      outer loop
         vertex 2.271209e-001 1.063033e-001 3.941066e-003
         vertex 2.322875e-001 1.063033e-001 6.299618e-002
         vertex 2.271209e-001 1.968910e-002 3.941066e-003
      endloop
   endfacet
   facet normal 9.961947e-001 0.000000e+000 -8.715574e-002
      outer loop
         vertex 2.271209e-001 1.968910e-002 3.941066e-003
         vertex 2.322875e-001 1.063033e-001 6.299618e-002
         vertex 2.322875e-001 1.968910e-002 6.299618e-002
      endloop
   endfacet
   facet normal 9.961947e-001 0.000000e+000 -8.715574e-002
      outer loop
         vertex 2.271209e-001 1.968910e-002 3.941066e-003
         vertex 2.322875e-001 1.968910e-002 6.299618e-002
         vertex 2.271209e-001 5.170710e-003 3.941066e-003
      endloop
   endfacet
   facet normal 9.961947e-001 0.000000e+000 -8.715574e-002
      outer loop
         vertex 2.271209e-001 5.170710e-003 3.941066e-003
         vertex 2.322875e-001 1.968910e-002 6.299618e-002
         vertex 2.322875e-001 4.060787e-006 6.299618e-002
      endloop
   endfacet
   facet normal -1.492639e-017 0.000000e+000 1.000000e+000
      outer loop
         vertex 2.271209e-001 1.063033e-001 3.941066e-003
         vertex 2.271209e-001 1.968910e-002 3.941066e-003
         vertex 2.322875e-001 1.063033e-001 3.941066e-003
      endloop
   endfacet
   facet normal -1.492639e-017 0.000000e+000 1.000000e+000
      outer loop
         vertex 2.322875e-001 1.063033e-001 3.941066e-003
         vertex 2.271209e-001 1.968910e-002 3.941066e-003
         vertex 2.322875e-001 1.968910e-002 3.941066e-003
      endloop
   endfacet
   facet normal -9.961947e-001 0.000000e+000 -8.715574e-002
      outer loop
         vertex 9.107721e-003 5.170710e-003 3.941066e-003
         vertex 3.941071e-003 4.060787e-006 6.299618e-002
         vertex 9.107721e-003 1.968910e-002 3.941066e-003
      endloop
   endfacet
   facet normal -9.961947e-001 0.000000e+000 -8.715574e-002
      outer loop
         vertex 9.107721e-003 1.968910e-002 3.941066e-003
         vertex 3.941071e-003 4.060787e-006 6.299618e-002
         vertex 3.941071e-003 1.968910e-002 6.299618e-002
      endloop
   endfacet
   facet normal -9.961947e-001 0.000000e+000 -8.715574e-002
      outer loop
         vertex 9.107721e-003 1.968910e-002 3.941066e-003
         vertex 3.941071e-003 1.968910e-002 6.299618e-002
         vertex 9.107721e-003 1.063033e-001 3.941066e-003
      endloop
   endfacet
   facet normal -9.961947e-001 0.000000e+000 -8.715574e-002
      outer loop
         vertex 9.107721e-003 1.063033e-001 3.941066e-003
         vertex 3.941071e-003 1.968910e-002 6.299618e-002
         vertex 3.941071e-003 1.063033e-001 6.299618e-002
      endloop
   endfacet
   facet normal -9.961947e-001 0.000000e+000 -8.715574e-002
      outer loop
         vertex 9.107721e-003 1.063033e-001 3.941066e-003
         vertex 3.941071e-003 1.063033e-001 6.299618e-002
         vertex 9.107721e-003 1.208217e-001 3.941066e-003
      endloop
   endfacet
   facet normal -9.961947e-001 0.000000e+000 -8.715574e-002
      outer loop
         vertex 9.107721e-003 1.208217e-001 3.941066e-003
         vertex 3.941071e-003 1.063033e-001 6.299618e-002
         vertex 3.941071e-003 1.259883e-001 6.299618e-002
      endloop
   endfacet
   facet normal 1.492639e-017 0.000000e+000 1.000000e+000
      outer loop
         vertex 3.941071e-003 1.063033e-001 3.941066e-003
         vertex 3.941071e-003 1.968910e-002 3.941066e-003
         vertex 9.107721e-003 1.063033e-001 3.941066e-003
      endloop
   endfacet
   facet normal 1.492639e-017 0.000000e+000 1.000000e+000
      outer loop
         vertex 9.107721e-003 1.063033e-001 3.941066e-003
         vertex 3.941071e-003 1.968910e-002 3.941066e-003
         vertex 9.107721e-003 1.968910e-002 3.941066e-003
      endloop
   endfacet
   facet normal 1.492639e-017 0.000000e+000 -1.000000e+000
      outer loop
         vertex 2.322875e-001 1.063033e-001 4.058175e-006
         vertex 2.322875e-001 1.968910e-002 4.058175e-006
         vertex 2.047285e-001 1.063033e-001 4.058175e-006
      endloop
   endfacet
   facet normal 1.492639e-017 0.000000e+000 -1.000000e+000
      outer loop
         vertex 2.047285e-001 1.063033e-001 4.058175e-006
         vertex 2.322875e-001 1.968910e-002 4.058175e-006
         vertex 2.047285e-001 1.968910e-002 4.058175e-006
      endloop
   endfacet
   facet normal -1.000000e+000 0.000000e+000 0.000000e+000
      outer loop
         vertex 2.322875e-001 1.968910e-002 3.941066e-003
         vertex 2.322875e-001 1.968910e-002 6.299618e-002
         vertex 2.322875e-001 1.063033e-001 3.941066e-003
      endloop
   endfacet
   facet normal -1.000000e+000 0.000000e+000 0.000000e+000
      outer loop
         vertex 2.322875e-001 1.063033e-001 3.941066e-003
         vertex 2.322875e-001 1.968910e-002 6.299618e-002
         vertex 2.322875e-001 1.063033e-001 6.299618e-002
      endloop
   endfacet
   facet normal 1.000000e+000 0.000000e+000 0.000000e+000
      outer loop
         vertex 3.150013e-002 1.968910e-002 3.941066e-003
         vertex 3.150013e-002 1.968910e-002 4.058175e-006
         vertex 3.150013e-002 1.063033e-001 3.941066e-003
      endloop
   endfacet
   facet normal 1.000000e+000 0.000000e+000 0.000000e+000
      outer loop
         vertex 3.150013e-002 1.063033e-001 3.941066e-003
         vertex 3.150013e-002 1.968910e-002 4.058175e-006
         vertex 3.150013e-002 1.063033e-001 4.058175e-006
      endloop
   endfacet
   facet normal -1.000000e+000 0.000000e+000 0.000000e+000
      outer loop
         vertex 2.047285e-001 1.063033e-001 4.058175e-006
         vertex 2.047285e-001 1.968910e-002 4.058175e-006
         vertex 2.047285e-001 1.063033e-001 3.941066e-003
      endloop
   endfacet
   facet normal -1.000000e+000 0.000000e+000 0.000000e+000
      outer loop
         vertex 2.047285e-001 1.063033e-001 3.941066e-003
         vertex 2.047285e-001 1.968910e-002 4.058175e-006
         vertex 2.047285e-001 1.968910e-002 3.941066e-003
      endloop
   endfacet
   facet normal 1.000000e+000 0.000000e+000 0.000000e+000
      outer loop
         vertex 3.941071e-003 1.063033e-001 6.299618e-002
         vertex 3.941071e-003 1.968910e-002 6.299618e-002
         vertex 3.941071e-003 1.063033e-001 3.941066e-003
      endloop
   endfacet
   facet normal 1.000000e+000 0.000000e+000 0.000000e+000
      outer loop
         vertex 3.941071e-003 1.063033e-001 3.941066e-003
         vertex 3.941071e-003 1.968910e-002 6.299618e-002
         vertex 3.941071e-003 1.968910e-002 3.941066e-003
      endloop
   endfacet
   facet normal -1.492639e-017 0.000000e+000 -1.000000e+000
      outer loop
         vertex 3.150013e-002 1.968910e-002 4.058175e-006
         vertex 3.941071e-003 1.968910e-002 4.058175e-006
         vertex 3.150013e-002 1.063033e-001 4.058175e-006
      endloop
   endfacet
   facet normal -1.492639e-017 0.000000e+000 -1.000000e+000
      outer loop
         vertex 3.150013e-002 1.063033e-001 4.058175e-006
         vertex 3.941071e-003 1.968910e-002 4.058175e-006
         vertex 3.941071e-003 1.063033e-001 4.058175e-006
      endloop
   endfacet
   facet normal 0.000000e+000 1.000000e+000 0.000000e+000
      outer loop
         vertex 2.322875e-001 1.063033e-001 6.299618e-002
         vertex 2.362245e-001 1.063033e-001 6.299618e-002
         vertex 2.322875e-001 1.063033e-001 3.941066e-003
      endloop
   endfacet
   facet normal 0.000000e+000 1.000000e+000 0.000000e+000
      outer loop
         vertex 2.322875e-001 1.063033e-001 3.941066e-003
         vertex 2.362245e-001 1.063033e-001 6.299618e-002
         vertex 2.362245e-001 1.063033e-001 3.941066e-003
      endloop
   endfacet
   facet normal 0.000000e+000 1.000000e+000 0.000000e+000
      outer loop
         vertex 2.356971e-001 1.063033e-001 1.972562e-003
         vertex 2.353034e-001 1.063033e-001 1.410406e-003
         vertex 2.322875e-001 1.063033e-001 3.941066e-003
      endloop
   endfacet
   facet normal 0.000000e+000 1.000000e+000 0.000000e+000
      outer loop
         vertex 2.322875e-001 1.063033e-001 3.941066e-003
         vertex 2.353034e-001 1.063033e-001 1.410406e-003
         vertex 2.348182e-001 1.063033e-001 9.251431e-004
      endloop
   endfacet
   facet normal 0.000000e+000 1.000000e+000 0.000000e+000
      outer loop
         vertex 2.322875e-001 1.063033e-001 3.941066e-003
         vertex 2.348182e-001 1.063033e-001 9.251431e-004
         vertex 2.342560e-001 1.063033e-001 5.315172e-004
      endloop
   endfacet
   facet normal 0.000000e+000 1.000000e+000 0.000000e+000
      outer loop
         vertex 2.047285e-001 1.063033e-001 4.058175e-006
         vertex 2.047285e-001 1.063033e-001 3.941066e-003
         vertex 2.322875e-001 1.063033e-001 4.058175e-006
      endloop
   endfacet
   facet normal 0.000000e+000 1.000000e+000 0.000000e+000
      outer loop
         vertex 2.322875e-001 1.063033e-001 4.058175e-006
         vertex 2.047285e-001 1.063033e-001 3.941066e-003
         vertex 2.271209e-001 1.063033e-001 3.941066e-003
      endloop
   endfacet
   facet normal 0.000000e+000 1.000000e+000 0.000000e+000
      outer loop
         vertex 2.322875e-001 1.063033e-001 4.058175e-006
         vertex 2.271209e-001 1.063033e-001 3.941066e-003
         vertex 2.329712e-001 1.063033e-001 6.387017e-005
      endloop
   endfacet
   facet normal 0.000000e+000 1.000000e+000 0.000000e+000
      outer loop
         vertex 2.329712e-001 1.063033e-001 6.387017e-005
         vertex 2.271209e-001 1.063033e-001 3.941066e-003
         vertex 2.322875e-001 1.063033e-001 3.941066e-003
      endloop
   endfacet
   facet normal 0.000000e+000 1.000000e+000 0.000000e+000
      outer loop
         vertex 2.329712e-001 1.063033e-001 6.387017e-005
         vertex 2.322875e-001 1.063033e-001 3.941066e-003
         vertex 2.336341e-001 1.063033e-001 2.414888e-004
      endloop
   endfacet
   facet normal 0.000000e+000 1.000000e+000 0.000000e+000
      outer loop
         vertex 2.336341e-001 1.063033e-001 2.414888e-004
         vertex 2.322875e-001 1.063033e-001 3.941066e-003
         vertex 2.342560e-001 1.063033e-001 5.315172e-004
      endloop
   endfacet
   facet normal 0.000000e+000 1.000000e+000 0.000000e+000
      outer loop
         vertex 2.362245e-001 1.063033e-001 3.941066e-003
         vertex 2.361647e-001 1.063033e-001 3.257412e-003
         vertex 2.322875e-001 1.063033e-001 3.941066e-003
      endloop
   endfacet
   facet normal 0.000000e+000 1.000000e+000 0.000000e+000
      outer loop
         vertex 2.322875e-001 1.063033e-001 3.941066e-003
         vertex 2.361647e-001 1.063033e-001 3.257412e-003
         vertex 2.359871e-001 1.063033e-001 2.594530e-003
      endloop
   endfacet
   facet normal 0.000000e+000 1.000000e+000 0.000000e+000
      outer loop
         vertex 2.322875e-001 1.063033e-001 3.941066e-003
         vertex 2.359871e-001 1.063033e-001 2.594530e-003
         vertex 2.356971e-001 1.063033e-001 1.972562e-003
      endloop
   endfacet
   facet normal 9.983119e-001 0.000000e+000 -5.807913e-002
      outer loop
         vertex 2.362245e-001 1.063033e-001 3.941066e-003
         vertex 2.362245e-001 1.968910e-002 3.941066e-003
         vertex 2.361647e-001 1.968910e-002 3.257412e-003
      endloop
   endfacet
   facet normal 9.932307e-001 0.000000e+000 -1.161583e-001
      outer loop
         vertex 2.362245e-001 1.063033e-001 3.941066e-003
         vertex 2.361647e-001 1.968910e-002 3.257412e-003
         vertex 2.361647e-001 1.063033e-001 3.257412e-003
      endloop
   endfacet
   facet normal 9.730600e-001 0.000000e+000 -2.305519e-001
      outer loop
         vertex 2.361647e-001 1.063033e-001 3.257412e-003
         vertex 2.361647e-001 1.968910e-002 3.257412e-003
         vertex 2.359871e-001 1.968910e-002 2.594530e-003
      endloop
   endfacet
   facet normal 9.579706e-001 0.000000e+000 -2.868663e-001
      outer loop
         vertex 2.361647e-001 1.063033e-001 3.257412e-003
         vertex 2.359871e-001 1.968910e-002 2.594530e-003
         vertex 2.359871e-001 1.063033e-001 2.594530e-003
      endloop
   endfacet
   facet normal 9.182422e-001 0.000000e+000 -3.960194e-001
      outer loop
         vertex 2.359871e-001 1.063033e-001 2.594530e-003
         vertex 2.359871e-001 1.968910e-002 2.594530e-003
         vertex 2.356971e-001 1.968910e-002 1.972562e-003
      endloop
   endfacet
   facet normal 8.936031e-001 0.000000e+000 -4.488580e-001
      outer loop
         vertex 2.359871e-001 1.063033e-001 2.594530e-003
         vertex 2.356971e-001 1.968910e-002 1.972562e-003
         vertex 2.356971e-001 1.063033e-001 1.972562e-003
      endloop
   endfacet
   facet normal 8.355240e-001 0.000000e+000 -5.494540e-001
      outer loop
         vertex 2.356971e-001 1.063033e-001 1.972562e-003
         vertex 2.356971e-001 1.968910e-002 1.972562e-003
         vertex 2.353034e-001 1.968910e-002 1.410406e-003
      endloop
   endfacet
   facet normal 8.020838e-001 0.000000e+000 -5.972114e-001
      outer loop
         vertex 2.356971e-001 1.063033e-001 1.972562e-003
         vertex 2.353034e-001 1.968910e-002 1.410406e-003
         vertex 2.353034e-001 1.063033e-001 1.410406e-003
      endloop
   endfacet
   facet normal 7.274188e-001 0.000000e+000 -6.861938e-001
      outer loop
         vertex 2.353034e-001 1.063033e-001 1.410406e-003
         vertex 2.353034e-001 1.968910e-002 1.410406e-003
         vertex 2.348182e-001 1.968910e-002 9.251431e-004
      endloop
   endfacet
   facet normal 6.861938e-001 0.000000e+000 -7.274188e-001
      outer loop
         vertex 2.353034e-001 1.063033e-001 1.410406e-003
         vertex 2.348182e-001 1.968910e-002 9.251431e-004
         vertex 2.348182e-001 1.063033e-001 9.251431e-004
      endloop
   endfacet
   facet normal 5.972114e-001 0.000000e+000 -8.020838e-001
      outer loop
         vertex 2.348182e-001 1.063033e-001 9.251431e-004
         vertex 2.348182e-001 1.968910e-002 9.251431e-004
         vertex 2.342560e-001 1.968910e-002 5.315172e-004
      endloop
   endfacet
   facet normal 5.494540e-001 0.000000e+000 -8.355240e-001
      outer loop
         vertex 2.348182e-001 1.063033e-001 9.251431e-004
         vertex 2.342560e-001 1.968910e-002 5.315172e-004
         vertex 2.342560e-001 1.063033e-001 5.315172e-004
      endloop
   endfacet
   facet normal 4.488580e-001 0.000000e+000 -8.936031e-001
      outer loop
         vertex 2.342560e-001 1.063033e-001 5.315172e-004
         vertex 2.342560e-001 1.968910e-002 5.315172e-004
         vertex 2.336341e-001 1.968910e-002 2.414888e-004
      endloop
   endfacet
   facet normal 3.960194e-001 0.000000e+000 -9.182422e-001
      outer loop
         vertex 2.342560e-001 1.063033e-001 5.315172e-004
         vertex 2.336341e-001 1.968910e-002 2.414888e-004
         vertex 2.336341e-001 1.063033e-001 2.414888e-004
      endloop
   endfacet
   facet normal 2.868663e-001 0.000000e+000 -9.579706e-001
      outer loop
         vertex 2.336341e-001 1.063033e-001 2.414888e-004
         vertex 2.336341e-001 1.968910e-002 2.414888e-004
         vertex 2.329712e-001 1.968910e-002 6.387017e-005
      endloop
   endfacet
   facet normal 2.305519e-001 0.000000e+000 -9.730600e-001
      outer loop
         vertex 2.336341e-001 1.063033e-001 2.414888e-004
         vertex 2.329712e-001 1.968910e-002 6.387017e-005
         vertex 2.329712e-001 1.063033e-001 6.387017e-005
      endloop
   endfacet
   facet normal 1.161583e-001 0.000000e+000 -9.932307e-001
      outer loop
         vertex 2.329712e-001 1.063033e-001 6.387017e-005
         vertex 2.329712e-001 1.968910e-002 6.387017e-005
         vertex 2.322875e-001 1.968910e-002 4.058175e-006
      endloop
   endfacet
   facet normal 5.807913e-002 0.000000e+000 -9.983119e-001
      outer loop
         vertex 2.329712e-001 1.063033e-001 6.387017e-005
         vertex 2.322875e-001 1.968910e-002 4.058175e-006
         vertex 2.322875e-001 1.063033e-001 4.058175e-006
      endloop
   endfacet
   facet normal 0.000000e+000 -1.000000e+000 0.000000e+000
      outer loop
         vertex 2.322875e-001 1.968910e-002 3.941066e-003
         vertex 2.356971e-001 1.968910e-002 1.972562e-003
         vertex 2.359871e-001 1.968910e-002 2.594530e-003
      endloop
   endfacet
   facet normal 0.000000e+000 -1.000000e+000 0.000000e+000
      outer loop
         vertex 2.322875e-001 1.968910e-002 3.941066e-003
         vertex 2.336341e-001 1.968910e-002 2.414888e-004
         vertex 2.342560e-001 1.968910e-002 5.315172e-004
      endloop
   endfacet
   facet normal 0.000000e+000 -1.000000e+000 0.000000e+000
      outer loop
         vertex 2.362245e-001 1.968910e-002 6.299618e-002
         vertex 2.322875e-001 1.968910e-002 6.299618e-002
         vertex 2.362245e-001 1.968910e-002 3.941066e-003
      endloop
   endfacet
   facet normal 0.000000e+000 -1.000000e+000 0.000000e+000
      outer loop
         vertex 2.362245e-001 1.968910e-002 3.941066e-003
         vertex 2.322875e-001 1.968910e-002 6.299618e-002
         vertex 2.322875e-001 1.968910e-002 3.941066e-003
      endloop
   endfacet
   facet normal 0.000000e+000 -1.000000e+000 0.000000e+000
      outer loop
         vertex 2.362245e-001 1.968910e-002 3.941066e-003
         vertex 2.322875e-001 1.968910e-002 3.941066e-003
         vertex 2.361647e-001 1.968910e-002 3.257412e-003
      endloop
   endfacet
   facet normal 0.000000e+000 -1.000000e+000 0.000000e+000
      outer loop
         vertex 2.361647e-001 1.968910e-002 3.257412e-003
         vertex 2.322875e-001 1.968910e-002 3.941066e-003
         vertex 2.359871e-001 1.968910e-002 2.594530e-003
      endloop
   endfacet
   facet normal 0.000000e+000 -1.000000e+000 0.000000e+000
      outer loop
         vertex 2.047285e-001 1.968910e-002 3.941066e-003
         vertex 2.047285e-001 1.968910e-002 4.058175e-006
         vertex 2.271209e-001 1.968910e-002 3.941066e-003
      endloop
   endfacet
   facet normal 0.000000e+000 -1.000000e+000 0.000000e+000
      outer loop
         vertex 2.271209e-001 1.968910e-002 3.941066e-003
         vertex 2.047285e-001 1.968910e-002 4.058175e-006
         vertex 2.322875e-001 1.968910e-002 4.058175e-006
      endloop
   endfacet
   facet normal 0.000000e+000 -1.000000e+000 0.000000e+000
      outer loop
         vertex 2.271209e-001 1.968910e-002 3.941066e-003
         vertex 2.322875e-001 1.968910e-002 4.058175e-006
         vertex 2.322875e-001 1.968910e-002 3.941066e-003
      endloop
   endfacet
   facet normal 0.000000e+000 -1.000000e+000 0.000000e+000
      outer loop
         vertex 2.322875e-001 1.968910e-002 3.941066e-003
         vertex 2.322875e-001 1.968910e-002 4.058175e-006
         vertex 2.329712e-001 1.968910e-002 6.387017e-005
      endloop
   endfacet
   facet normal 0.000000e+000 -1.000000e+000 0.000000e+000
      outer loop
         vertex 2.322875e-001 1.968910e-002 3.941066e-003
         vertex 2.329712e-001 1.968910e-002 6.387017e-005
         vertex 2.336341e-001 1.968910e-002 2.414888e-004
      endloop
   endfacet
   facet normal 0.000000e+000 -1.000000e+000 0.000000e+000
      outer loop
         vertex 2.342560e-001 1.968910e-002 5.315172e-004
         vertex 2.348182e-001 1.968910e-002 9.251431e-004
         vertex 2.322875e-001 1.968910e-002 3.941066e-003
      endloop
   endfacet
   facet normal 0.000000e+000 -1.000000e+000 0.000000e+000
      outer loop
         vertex 2.322875e-001 1.968910e-002 3.941066e-003
         vertex 2.348182e-001 1.968910e-002 9.251431e-004
         vertex 2.353034e-001 1.968910e-002 1.410406e-003
      endloop
   endfacet
   facet normal 0.000000e+000 -1.000000e+000 0.000000e+000
      outer loop
         vertex 2.322875e-001 1.968910e-002 3.941066e-003
         vertex 2.353034e-001 1.968910e-002 1.410406e-003
         vertex 2.356971e-001 1.968910e-002 1.972562e-003
      endloop
   endfacet
   facet normal 2.447394e-018 0.000000e+000 -1.000000e+000
      outer loop
         vertex 2.047285e-001 1.968910e-002 3.941066e-003
         vertex 2.271209e-001 1.968910e-002 3.941066e-003
         vertex 2.271209e-001 5.170710e-003 3.941066e-003
      endloop
   endfacet
   facet normal 2.447394e-018 0.000000e+000 -1.000000e+000
      outer loop
         vertex 3.150013e-002 1.063033e-001 3.941066e-003
         vertex 9.107721e-003 1.063033e-001 3.941066e-003
         vertex 9.107721e-003 1.208217e-001 3.941066e-003
      endloop
   endfacet
   facet normal 2.447394e-018 0.000000e+000 -1.000000e+000
      outer loop
         vertex 9.107721e-003 5.170710e-003 3.941066e-003
         vertex 9.107721e-003 1.968910e-002 3.941066e-003
         vertex 3.150013e-002 1.968910e-002 3.941066e-003
      endloop
   endfacet
   facet normal 2.447394e-018 0.000000e+000 -1.000000e+000
      outer loop
         vertex 2.271209e-001 1.208217e-001 3.941066e-003
         vertex 2.271209e-001 1.063033e-001 3.941066e-003
         vertex 2.047285e-001 1.063033e-001 3.941066e-003
      endloop
   endfacet
   facet normal 2.447394e-018 0.000000e+000 -1.000000e+000
      outer loop
         vertex 2.271209e-001 5.170710e-003 3.941066e-003
         vertex 9.107721e-003 5.170710e-003 3.941066e-003
         vertex 2.047285e-001 1.968910e-002 3.941066e-003
      endloop
   endfacet
   facet normal 2.447394e-018 0.000000e+000 -1.000000e+000
      outer loop
         vertex 2.047285e-001 1.968910e-002 3.941066e-003
         vertex 9.107721e-003 5.170710e-003 3.941066e-003
         vertex 3.150013e-002 1.968910e-002 3.941066e-003
      endloop
   endfacet
   facet normal 2.447394e-018 0.000000e+000 -1.000000e+000
      outer loop
         vertex 2.047285e-001 1.968910e-002 3.941066e-003
         vertex 3.150013e-002 1.968910e-002 3.941066e-003
         vertex 2.047285e-001 1.063033e-001 3.941066e-003
      endloop
   endfacet
   facet normal 2.447394e-018 0.000000e+000 -1.000000e+000
      outer loop
         vertex 2.047285e-001 1.063033e-001 3.941066e-003
         vertex 3.150013e-002 1.968910e-002 3.941066e-003
         vertex 3.150013e-002 1.063033e-001 3.941066e-003
      endloop
   endfacet
   facet normal 2.447394e-018 0.000000e+000 -1.000000e+000
      outer loop
         vertex 2.047285e-001 1.063033e-001 3.941066e-003
         vertex 3.150013e-002 1.063033e-001 3.941066e-003
         vertex 2.271209e-001 1.208217e-001 3.941066e-003
      endloop
   endfacet
   facet normal 2.447394e-018 0.000000e+000 -1.000000e+000
      outer loop
         vertex 2.271209e-001 1.208217e-001 3.941066e-003
         vertex 3.150013e-002 1.063033e-001 3.941066e-003
         vertex 9.107721e-003 1.208217e-001 3.941066e-003
      endloop
   endfacet
   facet normal 0.000000e+000 -1.000000e+000 0.000000e+000
      outer loop
         vertex 3.941071e-003 1.968910e-002 6.299618e-002
         vertex 4.060787e-006 1.968910e-002 6.299618e-002
         vertex 3.941071e-003 1.968910e-002 3.941066e-003
      endloop
   endfacet
   facet normal 0.000000e+000 -1.000000e+000 0.000000e+000
      outer loop
         vertex 3.941071e-003 1.968910e-002 3.941066e-003
         vertex 4.060787e-006 1.968910e-002 6.299618e-002
         vertex 4.060787e-006 1.968910e-002 3.941066e-003
      endloop
   endfacet
   facet normal 0.000000e+000 -1.000000e+000 0.000000e+000
      outer loop
         vertex 4.060787e-006 1.968910e-002 3.941066e-003
         vertex 6.387260e-005 1.968910e-002 3.257412e-003
         vertex 3.941071e-003 1.968910e-002 3.941066e-003
      endloop
   endfacet
   facet normal 0.000000e+000 -1.000000e+000 0.000000e+000
      outer loop
         vertex 3.941071e-003 1.968910e-002 3.941066e-003
         vertex 6.387260e-005 1.968910e-002 3.257412e-003
         vertex 2.414930e-004 1.968910e-002 2.594530e-003
      endloop
   endfacet
   facet normal 0.000000e+000 -1.000000e+000 0.000000e+000
      outer loop
         vertex 3.941071e-003 1.968910e-002 3.941066e-003
         vertex 2.414930e-004 1.968910e-002 2.594530e-003
         vertex 5.315230e-004 1.968910e-002 1.972562e-003
      endloop
   endfacet
   facet normal 0.000000e+000 -1.000000e+000 0.000000e+000
      outer loop
         vertex 5.315230e-004 1.968910e-002 1.972562e-003
         vertex 9.251443e-004 1.968910e-002 1.410406e-003
         vertex 3.941071e-003 1.968910e-002 3.941066e-003
      endloop
   endfacet
   facet normal 0.000000e+000 -1.000000e+000 0.000000e+000
      outer loop
         vertex 3.941071e-003 1.968910e-002 3.941066e-003
         vertex 9.251443e-004 1.968910e-002 1.410406e-003
         vertex 1.410413e-003 1.968910e-002 9.251431e-004
      endloop
   endfacet
   facet normal 0.000000e+000 -1.000000e+000 0.000000e+000
      outer loop
         vertex 3.941071e-003 1.968910e-002 3.941066e-003
         vertex 1.410413e-003 1.968910e-002 9.251431e-004
         vertex 1.972561e-003 1.968910e-002 5.315172e-004
      endloop
   endfacet
   facet normal 0.000000e+000 -1.000000e+000 0.000000e+000
      outer loop
         vertex 3.150013e-002 1.968910e-002 4.058175e-006
         vertex 3.150013e-002 1.968910e-002 3.941066e-003
         vertex 3.941071e-003 1.968910e-002 4.058175e-006
      endloop
   endfacet
   facet normal 0.000000e+000 -1.000000e+000 0.000000e+000
      outer loop
         vertex 3.941071e-003 1.968910e-002 4.058175e-006
         vertex 3.150013e-002 1.968910e-002 3.941066e-003
         vertex 9.107721e-003 1.968910e-002 3.941066e-003
      endloop
   endfacet
   facet normal 0.000000e+000 -1.000000e+000 0.000000e+000
      outer loop
         vertex 3.941071e-003 1.968910e-002 4.058175e-006
         vertex 9.107721e-003 1.968910e-002 3.941066e-003
         vertex 3.257420e-003 1.968910e-002 6.387017e-005
      endloop
   endfacet
   facet normal 0.000000e+000 -1.000000e+000 0.000000e+000
      outer loop
         vertex 3.257420e-003 1.968910e-002 6.387017e-005
         vertex 9.107721e-003 1.968910e-002 3.941066e-003
         vertex 3.941071e-003 1.968910e-002 3.941066e-003
      endloop
   endfacet
   facet normal 0.000000e+000 -1.000000e+000 0.000000e+000
      outer loop
         vertex 3.257420e-003 1.968910e-002 6.387017e-005
         vertex 3.941071e-003 1.968910e-002 3.941066e-003
         vertex 2.594531e-003 1.968910e-002 2.414888e-004
      endloop
   endfacet
   facet normal 0.000000e+000 -1.000000e+000 0.000000e+000
      outer loop
         vertex 2.594531e-003 1.968910e-002 2.414888e-004
         vertex 3.941071e-003 1.968910e-002 3.941066e-003
         vertex 1.972561e-003 1.968910e-002 5.315172e-004
      endloop
   endfacet
   facet normal 0.000000e+000 1.000000e+000 0.000000e+000
      outer loop
         vertex 5.315230e-004 1.063033e-001 1.972562e-003
         vertex 2.414930e-004 1.063033e-001 2.594530e-003
         vertex 3.941071e-003 1.063033e-001 3.941066e-003
      endloop
   endfacet
   facet normal 0.000000e+000 1.000000e+000 0.000000e+000
      outer loop
         vertex 4.060787e-006 1.063033e-001 6.299618e-002
         vertex 3.941071e-003 1.063033e-001 6.299618e-002
         vertex 4.060787e-006 1.063033e-001 3.941066e-003
      endloop
   endfacet
   facet normal 0.000000e+000 1.000000e+000 0.000000e+000
      outer loop
         vertex 4.060787e-006 1.063033e-001 3.941066e-003
         vertex 3.941071e-003 1.063033e-001 6.299618e-002
         vertex 3.941071e-003 1.063033e-001 3.941066e-003
      endloop
   endfacet
   facet normal 0.000000e+000 1.000000e+000 0.000000e+000
      outer loop
         vertex 4.060787e-006 1.063033e-001 3.941066e-003
         vertex 3.941071e-003 1.063033e-001 3.941066e-003
         vertex 6.387260e-005 1.063033e-001 3.257412e-003
      endloop
   endfacet
   facet normal 0.000000e+000 1.000000e+000 0.000000e+000
      outer loop
         vertex 6.387260e-005 1.063033e-001 3.257412e-003
         vertex 3.941071e-003 1.063033e-001 3.941066e-003
         vertex 2.414930e-004 1.063033e-001 2.594530e-003
      endloop
   endfacet
   facet normal 0.000000e+000 1.000000e+000 0.000000e+000
      outer loop
         vertex 3.941071e-003 1.063033e-001 3.941066e-003
         vertex 2.594531e-003 1.063033e-001 2.414888e-004
         vertex 1.972561e-003 1.063033e-001 5.315172e-004
      endloop
   endfacet
   facet normal 0.000000e+000 1.000000e+000 0.000000e+000
      outer loop
         vertex 3.150013e-002 1.063033e-001 3.941066e-003
         vertex 3.150013e-002 1.063033e-001 4.058175e-006
         vertex 9.107721e-003 1.063033e-001 3.941066e-003
      endloop
   endfacet
   facet normal 0.000000e+000 1.000000e+000 0.000000e+000
      outer loop
         vertex 9.107721e-003 1.063033e-001 3.941066e-003
         vertex 3.150013e-002 1.063033e-001 4.058175e-006
         vertex 3.941071e-003 1.063033e-001 4.058175e-006
      endloop
   endfacet
   facet normal 0.000000e+000 1.000000e+000 0.000000e+000
      outer loop
         vertex 9.107721e-003 1.063033e-001 3.941066e-003
         vertex 3.941071e-003 1.063033e-001 4.058175e-006
         vertex 3.941071e-003 1.063033e-001 3.941066e-003
      endloop
   endfacet
   facet normal 0.000000e+000 1.000000e+000 0.000000e+000
      outer loop
         vertex 3.941071e-003 1.063033e-001 3.941066e-003
         vertex 3.941071e-003 1.063033e-001 4.058175e-006
         vertex 3.257420e-003 1.063033e-001 6.387017e-005
      endloop
   endfacet
   facet normal 0.000000e+000 1.000000e+000 0.000000e+000
      outer loop
         vertex 3.941071e-003 1.063033e-001 3.941066e-003
         vertex 3.257420e-003 1.063033e-001 6.387017e-005
         vertex 2.594531e-003 1.063033e-001 2.414888e-004
      endloop
   endfacet
   facet normal 0.000000e+000 1.000000e+000 0.000000e+000
      outer loop
         vertex 1.972561e-003 1.063033e-001 5.315172e-004
         vertex 1.410413e-003 1.063033e-001 9.251431e-004
         vertex 3.941071e-003 1.063033e-001 3.941066e-003
      endloop
   endfacet
   facet normal 0.000000e+000 1.000000e+000 0.000000e+000
      outer loop
         vertex 3.941071e-003 1.063033e-001 3.941066e-003
         vertex 1.410413e-003 1.063033e-001 9.251431e-004
         vertex 9.251443e-004 1.063033e-001 1.410406e-003
      endloop
   endfacet
   facet normal 0.000000e+000 1.000000e+000 0.000000e+000
      outer loop
         vertex 3.941071e-003 1.063033e-001 3.941066e-003
         vertex 9.251443e-004 1.063033e-001 1.410406e-003
         vertex 5.315230e-004 1.063033e-001 1.972562e-003
      endloop
   endfacet
   facet normal -5.807913e-002 0.000000e+000 -9.983119e-001
      outer loop
         vertex 3.941071e-003 1.063033e-001 4.058175e-006
         vertex 3.941071e-003 1.968910e-002 4.058175e-006
         vertex 3.257420e-003 1.968910e-002 6.387017e-005
      endloop
   endfacet
   facet normal -1.161583e-001 0.000000e+000 -9.932307e-001
      outer loop
         vertex 3.941071e-003 1.063033e-001 4.058175e-006
         vertex 3.257420e-003 1.968910e-002 6.387017e-005
         vertex 3.257420e-003 1.063033e-001 6.387017e-005
      endloop
   endfacet
   facet normal -2.305519e-001 0.000000e+000 -9.730600e-001
      outer loop
         vertex 3.257420e-003 1.063033e-001 6.387017e-005
         vertex 3.257420e-003 1.968910e-002 6.387017e-005
         vertex 2.594531e-003 1.968910e-002 2.414888e-004
      endloop
   endfacet
   facet normal -2.868663e-001 0.000000e+000 -9.579706e-001
      outer loop
         vertex 3.257420e-003 1.063033e-001 6.387017e-005
         vertex 2.594531e-003 1.968910e-002 2.414888e-004
         vertex 2.594531e-003 1.063033e-001 2.414888e-004
      endloop
   endfacet
   facet normal -3.960194e-001 0.000000e+000 -9.182422e-001
      outer loop
         vertex 2.594531e-003 1.063033e-001 2.414888e-004
         vertex 2.594531e-003 1.968910e-002 2.414888e-004
         vertex 1.972561e-003 1.968910e-002 5.315172e-004
      endloop
   endfacet
   facet normal -4.488580e-001 0.000000e+000 -8.936031e-001
      outer loop
         vertex 2.594531e-003 1.063033e-001 2.414888e-004
         vertex 1.972561e-003 1.968910e-002 5.315172e-004
         vertex 1.972561e-003 1.063033e-001 5.315172e-004
      endloop
   endfacet
   facet normal -5.494540e-001 0.000000e+000 -8.355240e-001
      outer loop
         vertex 1.972561e-003 1.063033e-001 5.315172e-004
         vertex 1.972561e-003 1.968910e-002 5.315172e-004
         vertex 1.410413e-003 1.968910e-002 9.251431e-004
      endloop
   endfacet
   facet normal -5.972114e-001 0.000000e+000 -8.020838e-001
      outer loop
         vertex 1.972561e-003 1.063033e-001 5.315172e-004
         vertex 1.410413e-003 1.968910e-002 9.251431e-004
         vertex 1.410413e-003 1.063033e-001 9.251431e-004
      endloop
   endfacet
   facet normal -6.861938e-001 0.000000e+000 -7.274188e-001
      outer loop
         vertex 1.410413e-003 1.063033e-001 9.251431e-004
         vertex 1.410413e-003 1.968910e-002 9.251431e-004
         vertex 9.251443e-004 1.968910e-002 1.410406e-003
      endloop
   endfacet
   facet normal -7.274188e-001 0.000000e+000 -6.861938e-001
      outer loop
         vertex 1.410413e-003 1.063033e-001 9.251431e-004
         vertex 9.251443e-004 1.968910e-002 1.410406e-003
         vertex 9.251443e-004 1.063033e-001 1.410406e-003
      endloop
   endfacet
   facet normal -8.020838e-001 0.000000e+000 -5.972114e-001
      outer loop
         vertex 9.251443e-004 1.063033e-001 1.410406e-003
         vertex 9.251443e-004 1.968910e-002 1.410406e-003
         vertex 5.315230e-004 1.968910e-002 1.972562e-003
      endloop
   endfacet
   facet normal -8.355240e-001 0.000000e+000 -5.494540e-001
      outer loop
         vertex 9.251443e-004 1.063033e-001 1.410406e-003
         vertex 5.315230e-004 1.968910e-002 1.972562e-003
         vertex 5.315230e-004 1.063033e-001 1.972562e-003
      endloop
   endfacet
   facet normal -8.936031e-001 0.000000e+000 -4.488580e-001
      outer loop
         vertex 5.315230e-004 1.063033e-001 1.972562e-003
         vertex 5.315230e-004 1.968910e-002 1.972562e-003
         vertex 2.414930e-004 1.968910e-002 2.594530e-003
      endloop
   endfacet
   facet normal -9.182422e-001 0.000000e+000 -3.960194e-001
      outer loop
         vertex 5.315230e-004 1.063033e-001 1.972562e-003
         vertex 2.414930e-004 1.968910e-002 2.594530e-003
         vertex 2.414930e-004 1.063033e-001 2.594530e-003
      endloop
   endfacet
   facet normal -9.579706e-001 0.000000e+000 -2.868663e-001
      outer loop
         vertex 2.414930e-004 1.063033e-001 2.594530e-003
         vertex 2.414930e-004 1.968910e-002 2.594530e-003
         vertex 6.387260e-005 1.968910e-002 3.257412e-003
      endloop
   endfacet
   facet normal -9.730600e-001 0.000000e+000 -2.305519e-001
      outer loop
         vertex 2.414930e-004 1.063033e-001 2.594530e-003
         vertex 6.387260e-005 1.968910e-002 3.257412e-003
         vertex 6.387260e-005 1.063033e-001 3.257412e-003
      endloop
   endfacet
   facet normal -9.932307e-001 0.000000e+000 -1.161583e-001
      outer loop
         vertex 6.387260e-005 1.063033e-001 3.257412e-003
         vertex 6.387260e-005 1.968910e-002 3.257412e-003
         vertex 4.060787e-006 1.968910e-002 3.941066e-003
      endloop
   endfacet
   facet normal -9.983119e-001 0.000000e+000 -5.807913e-002
      outer loop
         vertex 6.387260e-005 1.063033e-001 3.257412e-003
         vertex 4.060787e-006 1.968910e-002 3.941066e-003
         vertex 4.060787e-006 1.063033e-001 3.941066e-003
      endloop
   endfacet
   facet normal 0.000000e+000 -9.961947e-001 -8.715574e-002
      outer loop
         vertex 2.271209e-001 5.170710e-003 3.941066e-003
         vertex 2.322875e-001 4.060787e-006 6.299618e-002
         vertex 9.107721e-003 5.170710e-003 3.941066e-003
      endloop
   endfacet
   facet normal 0.000000e+000 -9.961947e-001 -8.715574e-002
      outer loop
         vertex 9.107721e-003 5.170710e-003 3.941066e-003
         vertex 2.322875e-001 4.060787e-006 6.299618e-002
         vertex 3.941071e-003 4.060787e-006 6.299618e-002
      endloop
   endfacet
   facet normal 1.000000e+000 0.000000e+000 0.000000e+000
      outer loop
         vertex 2.362245e-001 1.063033e-001 6.299618e-002
         vertex 2.362245e-001 1.968910e-002 6.299618e-002
         vertex 2.362245e-001 1.063033e-001 3.941066e-003
      endloop
   endfacet
   facet normal 1.000000e+000 0.000000e+000 0.000000e+000
      outer loop
         vertex 2.362245e-001 1.063033e-001 3.941066e-003
         vertex 2.362245e-001 1.968910e-002 6.299618e-002
         vertex 2.362245e-001 1.968910e-002 3.941066e-003
      endloop
   endfacet
   facet normal 0.000000e+000 0.000000e+000 -1.000000e+000
      outer loop
         vertex 2.362245e-001 4.060787e-006 6.299618e-002
         vertex 2.322875e-001 4.060787e-006 6.299618e-002
         vertex 2.362245e-001 1.968910e-002 6.299618e-002
      endloop
   endfacet
   facet normal 0.000000e+000 0.000000e+000 -1.000000e+000
      outer loop
         vertex 2.362245e-001 1.968910e-002 6.299618e-002
         vertex 2.322875e-001 4.060787e-006 6.299618e-002
         vertex 2.322875e-001 1.968910e-002 6.299618e-002
      endloop
   endfacet
   facet normal 0.000000e+000 9.961947e-001 -8.715574e-002
      outer loop
         vertex 2.322875e-001 1.259883e-001 6.299618e-002
         vertex 2.271209e-001 1.208217e-001 3.941066e-003
         vertex 3.941071e-003 1.259883e-001 6.299618e-002
      endloop
   endfacet
   facet normal 0.000000e+000 9.961947e-001 -8.715574e-002
      outer loop
         vertex 3.941071e-003 1.259883e-001 6.299618e-002
         vertex 2.271209e-001 1.208217e-001 3.941066e-003
         vertex 9.107721e-003 1.208217e-001 3.941066e-003
      endloop
   endfacet
   facet normal 0.000000e+000 0.000000e+000 -1.000000e+000
      outer loop
         vertex 2.362245e-001 1.259883e-001 6.299618e-002
         vertex 2.362245e-001 1.063033e-001 6.299618e-002
         vertex 2.322875e-001 1.259883e-001 6.299618e-002
      endloop
   endfacet
   facet normal 0.000000e+000 0.000000e+000 -1.000000e+000
      outer loop
         vertex 2.322875e-001 1.259883e-001 6.299618e-002
         vertex 2.362245e-001 1.063033e-001 6.299618e-002
         vertex 2.322875e-001 1.063033e-001 6.299618e-002
      endloop
   endfacet
   facet normal -1.084202e-014 0.000000e+000 -1.000000e+000
      outer loop
         vertex 3.941071e-003 4.060787e-006 6.299618e-002
         vertex 4.060787e-006 4.060787e-006 6.299618e-002
         vertex 3.941071e-003 1.968910e-002 6.299618e-002
      endloop
   endfacet
   facet normal -1.084202e-014 0.000000e+000 -1.000000e+000
      outer loop
         vertex 3.941071e-003 1.968910e-002 6.299618e-002
         vertex 4.060787e-006 4.060787e-006 6.299618e-002
         vertex 4.060787e-006 1.968910e-002 6.299618e-002
      endloop
   endfacet
   facet normal -1.000000e+000 0.000000e+000 0.000000e+000
      outer loop
         vertex 4.060787e-006 1.968910e-002 3.941066e-003
         vertex 4.060787e-006 1.968910e-002 6.299618e-002
         vertex 4.060787e-006 1.063033e-001 3.941066e-003
      endloop
   endfacet
   facet normal -1.000000e+000 0.000000e+000 0.000000e+000
      outer loop
         vertex 4.060787e-006 1.063033e-001 3.941066e-003
         vertex 4.060787e-006 1.968910e-002 6.299618e-002
         vertex 4.060787e-006 1.063033e-001 6.299618e-002
      endloop
   endfacet
   facet normal -1.084202e-014 0.000000e+000 -1.000000e+000
      outer loop
         vertex 3.941071e-003 1.259883e-001 6.299618e-002
         vertex 3.941071e-003 1.063033e-001 6.299618e-002
         vertex 4.060787e-006 1.259883e-001 6.299618e-002
      endloop
   endfacet
   facet normal -1.084202e-014 0.000000e+000 -1.000000e+000
      outer loop
         vertex 4.060787e-006 1.259883e-001 6.299618e-002
         vertex 3.941071e-003 1.063033e-001 6.299618e-002
         vertex 4.060787e-006 1.063033e-001 6.299618e-002
      endloop
   endfacet
   facet normal 0.000000e+000 -9.961947e-001 8.715574e-002
      outer loop
         vertex 2.362245e-001 4.060787e-006 6.299618e-002
         vertex 2.300245e-001 6.204043e-003 1.338623e-001
         vertex 2.322875e-001 4.060787e-006 6.299618e-002
      endloop
   endfacet
   facet normal 0.000000e+000 -9.961947e-001 8.715574e-002
      outer loop
         vertex 2.322875e-001 4.060787e-006 6.299618e-002
         vertex 2.300245e-001 6.204043e-003 1.338623e-001
         vertex 6.204048e-003 6.204043e-003 1.338623e-001
      endloop
   endfacet
   facet normal 0.000000e+000 -9.961947e-001 8.715574e-002
      outer loop
         vertex 2.322875e-001 4.060787e-006 6.299618e-002
         vertex 6.204048e-003 6.204043e-003 1.338623e-001
         vertex 3.941071e-003 4.060787e-006 6.299618e-002
      endloop
   endfacet
   facet normal 0.000000e+000 -9.961947e-001 8.715574e-002
      outer loop
         vertex 3.941071e-003 4.060787e-006 6.299618e-002
         vertex 6.204048e-003 6.204043e-003 1.338623e-001
         vertex 4.060787e-006 4.060787e-006 6.299618e-002
      endloop
   endfacet
   facet normal 9.961947e-001 0.000000e+000 8.715574e-002
      outer loop
         vertex 2.362245e-001 1.259883e-001 6.299618e-002
         vertex 2.300245e-001 1.197883e-001 1.338623e-001
         vertex 2.362245e-001 1.063033e-001 6.299618e-002
      endloop
   endfacet
   facet normal 9.961947e-001 0.000000e+000 8.715574e-002
      outer loop
         vertex 2.362245e-001 1.063033e-001 6.299618e-002
         vertex 2.300245e-001 1.197883e-001 1.338623e-001
         vertex 2.300245e-001 6.204043e-003 1.338623e-001
      endloop
   endfacet
   facet normal 9.961947e-001 0.000000e+000 8.715574e-002
      outer loop
         vertex 2.362245e-001 1.063033e-001 6.299618e-002
         vertex 2.300245e-001 6.204043e-003 1.338623e-001
         vertex 2.362245e-001 1.968910e-002 6.299618e-002
      endloop
   endfacet
   facet normal 9.961947e-001 0.000000e+000 8.715574e-002
      outer loop
         vertex 2.362245e-001 1.968910e-002 6.299618e-002
         vertex 2.300245e-001 6.204043e-003 1.338623e-001
         vertex 2.362245e-001 4.060787e-006 6.299618e-002
      endloop
   endfacet
   facet normal 0.000000e+000 9.961947e-001 8.715574e-002
      outer loop
         vertex 3.941071e-003 1.259883e-001 6.299618e-002
         vertex 4.060787e-006 1.259883e-001 6.299618e-002
         vertex 6.204048e-003 1.197883e-001 1.338623e-001
      endloop
   endfacet
   facet normal 0.000000e+000 9.961947e-001 8.715574e-002
      outer loop
         vertex 3.941071e-003 1.259883e-001 6.299618e-002
         vertex 6.204048e-003 1.197883e-001 1.338623e-001
         vertex 2.322875e-001 1.259883e-001 6.299618e-002
      endloop
   endfacet
   facet normal 0.000000e+000 9.961947e-001 8.715574e-002
      outer loop
         vertex 2.322875e-001 1.259883e-001 6.299618e-002
         vertex 6.204048e-003 1.197883e-001 1.338623e-001
         vertex 2.300245e-001 1.197883e-001 1.338623e-001
      endloop
   endfacet
   facet normal 0.000000e+000 9.961947e-001 8.715574e-002
      outer loop
         vertex 2.322875e-001 1.259883e-001 6.299618e-002
         vertex 2.300245e-001 1.197883e-001 1.338623e-001
         vertex 2.362245e-001 1.259883e-001 6.299618e-002
      endloop
   endfacet
   facet normal -9.961947e-001 0.000000e+000 8.715574e-002
      outer loop
         vertex 4.060787e-006 1.968910e-002 6.299618e-002
         vertex 4.060787e-006 4.060787e-006 6.299618e-002
         vertex 6.204048e-003 6.204043e-003 1.338623e-001
      endloop
   endfacet
   facet normal -9.961947e-001 0.000000e+000 8.715574e-002
      outer loop
         vertex 4.060787e-006 1.968910e-002 6.299618e-002
         vertex 6.204048e-003 6.204043e-003 1.338623e-001
         vertex 4.060787e-006 1.063033e-001 6.299618e-002
      endloop
   endfacet
   facet normal -9.961947e-001 0.000000e+000 8.715574e-002
      outer loop
         vertex 4.060787e-006 1.063033e-001 6.299618e-002
         vertex 6.204048e-003 6.204043e-003 1.338623e-001
         vertex 6.204048e-003 1.197883e-001 1.338623e-001
      endloop
   endfacet
   facet normal -9.961947e-001 0.000000e+000 8.715574e-002
      outer loop
         vertex 4.060787e-006 1.063033e-001 6.299618e-002
         vertex 6.204048e-003 1.197883e-001 1.338623e-001
         vertex 4.060787e-006 1.259883e-001 6.299618e-002
      endloop
   endfacet
   facet normal 0.000000e+000 0.000000e+000 1.000000e+000
      outer loop
         vertex 6.204048e-003 6.204043e-003 1.338623e-001
         vertex 2.300245e-001 6.204043e-003 1.338623e-001
         vertex 6.204048e-003 1.197883e-001 1.338623e-001
      endloop
   endfacet
   facet normal 0.000000e+000 0.000000e+000 1.000000e+000
      outer loop
         vertex 6.204048e-003 1.197883e-001 1.338623e-001
         vertex 2.300245e-001 6.204043e-003 1.338623e-001
         vertex 2.300245e-001 1.197883e-001 1.338623e-001
      endloop
   endfacet
endsolid