solid R1
   facet normal 0.000000e+000 0.000000e+000 1.000000e+000
      outer loop
         vertex 2.953161e-002 1.964973e-002 1.571272e-002
         vertex 2.953161e-002 4.057349e-006 1.575209e-002
         vertex 3.937414e-002 1.968910e-002 1.575209e-002
      endloop
   endfacet
   facet normal 0.000000e+000 0.000000e+000 1.000000e+000
      outer loop
         vertex 3.937414e-002 1.968910e-002 1.575209e-002
         vertex 2.953161e-002 4.057349e-006 1.575209e-002
         vertex 3.937414e-002 4.057349e-006 1.575209e-002
      endloop
   endfacet
   facet normal 0.000000e+000 0.000000e+000 1.000000e+000
      outer loop
         vertex 4.056203e-006 4.057349e-006 1.575209e-002
         vertex 9.846576e-003 4.057349e-006 1.575209e-002
         vertex 4.056203e-006 1.968910e-002 1.575209e-002
      endloop
   endfacet
   facet normal 0.000000e+000 0.000000e+000 1.000000e+000
      outer loop
         vertex 4.056203e-006 1.968910e-002 1.575209e-002
         vertex 9.846576e-003 4.057349e-006 1.575209e-002
         vertex 9.846576e-003 1.964973e-002 1.571272e-002
      endloop
   endfacet
   facet normal 1.084202e-016 0.000000e+000 1.000000e+000
      outer loop
         vertex 9.846576e-003 4.057349e-006 1.575209e-002
         vertex 2.953161e-002 4.057349e-006 1.575209e-002
         vertex 9.846576e-003 1.964973e-002 1.571272e-002
      endloop
   endfacet
   facet normal 1.084202e-016 0.000000e+000 1.000000e+000
      outer loop
         vertex 9.846576e-003 1.964973e-002 1.571272e-002
         vertex 2.953161e-002 4.057349e-006 1.575209e-002
         vertex 2.953161e-002 1.964973e-002 1.571272e-002
      endloop
   endfacet
   facet normal 0.000000e+000 -1.000000e+000 0.000000e+000
      outer loop
         vertex 3.937414e-002 4.057349e-006 4.058175e-006
         vertex 3.937414e-002 4.057349e-006 1.575209e-002
         vertex 2.953161e-002 4.057349e-006 4.058175e-006
      endloop
   endfacet
   facet normal 0.000000e+000 -1.000000e+000 0.000000e+000
      outer loop
         vertex 2.953161e-002 4.057349e-006 4.058175e-006
         vertex 3.937414e-002 4.057349e-006 1.575209e-002
         vertex 2.953161e-002 4.057349e-006 1.575209e-002
      endloop
   endfacet
   facet normal 1.000000e+000 0.000000e+000 0.000000e+000
      outer loop
         vertex 3.937414e-002 4.057349e-006 1.575209e-002
         vertex 3.937414e-002 4.057349e-006 4.058175e-006
         vertex 3.937414e-002 1.968910e-002 1.575209e-002
      endloop
   endfacet
   facet normal 1.000000e+000 0.000000e+000 0.000000e+000
      outer loop
         vertex 3.937414e-002 1.968910e-002 1.575209e-002
         vertex 3.937414e-002 4.057349e-006 4.058175e-006
         vertex 3.937414e-002 1.968910e-002 4.058175e-006
      endloop
   endfacet
   facet normal 0.000000e+000 1.000000e+000 0.000000e+000
      outer loop
         vertex 3.937414e-002 1.968910e-002 1.575209e-002
         vertex 3.937414e-002 1.968910e-002 4.058175e-006
         vertex 2.953161e-002 1.964973e-002 1.571272e-002
      endloop
   endfacet
   facet normal 0.000000e+000 1.000000e+000 0.000000e+000
      outer loop
         vertex 2.953161e-002 1.964973e-002 1.571272e-002
         vertex 3.937414e-002 1.968910e-002 4.058175e-006
         vertex 2.953161e-002 1.964973e-002 4.058175e-006
      endloop
   endfacet
   facet normal 0.000000e+000 1.000000e+000 0.000000e+000
      outer loop
         vertex 2.953161e-002 1.964973e-002 4.058175e-006
         vertex 9.846576e-003 1.964973e-002 4.058175e-006
         vertex 2.953161e-002 1.964973e-002 1.571272e-002
      endloop
   endfacet
   facet normal 0.000000e+000 1.000000e+000 0.000000e+000
      outer loop
         vertex 2.953161e-002 1.964973e-002 1.571272e-002
         vertex 9.846576e-003 1.964973e-002 4.058175e-006
         vertex 9.846576e-003 1.964973e-002 1.571272e-002
      endloop
   endfacet
   facet normal 0.000000e+000 1.000000e+000 0.000000e+000
      outer loop
         vertex 4.056203e-006 1.968910e-002 4.058175e-006
         vertex 4.056203e-006 1.968910e-002 1.575209e-002
         vertex 9.846576e-003 1.964973e-002 4.058175e-006
      endloop
   endfacet
   facet normal 0.000000e+000 1.000000e+000 0.000000e+000
      outer loop
         vertex 9.846576e-003 1.964973e-002 4.058175e-006
         vertex 4.056203e-006 1.968910e-002 1.575209e-002
         vertex 9.846576e-003 1.964973e-002 1.571272e-002
      endloop
   endfacet
   facet normal -1.000000e+000 -2.168404e-016 0.000000e+000
      outer loop
         vertex 4.056203e-006 1.968910e-002 1.575209e-002
         vertex 4.056203e-006 1.968910e-002 4.058175e-006
         vertex 4.056203e-006 4.057349e-006 1.575209e-002
      endloop
   endfacet
   facet normal -1.000000e+000 -2.168404e-016 0.000000e+000
      outer loop
         vertex 4.056203e-006 4.057349e-006 1.575209e-002
         vertex 4.056203e-006 1.968910e-002 4.058175e-006
         vertex 4.056203e-006 4.057349e-006 4.058175e-006
      endloop
   endfacet
   facet normal 0.000000e+000 -1.000000e+000 0.000000e+000
      outer loop
         vertex 4.056203e-006 4.057349e-006 1.575209e-002
         vertex 4.056203e-006 4.057349e-006 4.058175e-006
         vertex 9.846576e-003 4.057349e-006 1.575209e-002
      endloop
   endfacet
   facet normal 0.000000e+000 -1.000000e+000 0.000000e+000
      outer loop
         vertex 9.846576e-003 4.057349e-006 1.575209e-002
         vertex 4.056203e-006 4.057349e-006 4.058175e-006
         vertex 9.846576e-003 4.057349e-006 4.058175e-006
      endloop
   endfacet
   facet normal 0.000000e+000 -1.000000e+000 0.000000e+000
      outer loop
         vertex 9.846576e-003 4.057349e-006 4.058175e-006
         vertex 2.953161e-002 4.057349e-006 4.058175e-006
         vertex 9.846576e-003 4.057349e-006 1.575209e-002
      endloop
   endfacet
   facet normal 0.000000e+000 -1.000000e+000 0.000000e+000
      outer loop
         vertex 9.846576e-003 4.057349e-006 1.575209e-002
         vertex 2.953161e-002 4.057349e-006 4.058175e-006
         vertex 2.953161e-002 4.057349e-006 1.575209e-002
      endloop
   endfacet
   facet normal 0.000000e+000 0.000000e+000 -1.000000e+000
      outer loop
         vertex 4.056203e-006 1.968910e-002 4.058175e-006
         vertex 9.846576e-003 1.964973e-002 4.058175e-006
         vertex 4.056203e-006 4.057349e-006 4.058175e-006
      endloop
   endfacet
   facet normal 0.000000e+000 0.000000e+000 -1.000000e+000
      outer loop
         vertex 9.846576e-003 4.057349e-006 4.058175e-006
         vertex 4.056203e-006 4.057349e-006 4.058175e-006
         vertex 9.846576e-003 1.964973e-002 4.058175e-006
      endloop
   endfacet
   facet normal 0.000000e+000 0.000000e+000 -1.000000e+000
      outer loop
         vertex 9.846576e-003 4.057349e-006 4.058175e-006
         vertex 9.846576e-003 1.964973e-002 4.058175e-006
         vertex 2.953161e-002 4.057349e-006 4.058175e-006
      endloop
   endfacet
   facet normal 0.000000e+000 0.000000e+000 -1.000000e+000
      outer loop
         vertex 2.953161e-002 4.057349e-006 4.058175e-006
         vertex 9.846576e-003 1.964973e-002 4.058175e-006
         vertex 2.953161e-002 1.964973e-002 4.058175e-006
      endloop
   endfacet
   facet normal 0.000000e+000 0.000000e+000 -1.000000e+000
      outer loop
         vertex 2.953161e-002 4.057349e-006 4.058175e-006
         vertex 2.953161e-002 1.964973e-002 4.058175e-006
         vertex 3.937414e-002 4.057349e-006 4.058175e-006
      endloop
   endfacet
   facet normal 0.000000e+000 0.000000e+000 -1.000000e+000
      outer loop
         vertex 3.937414e-002 4.057349e-006 4.058175e-006
         vertex 2.953161e-002 1.964973e-002 4.058175e-006
         vertex 3.937414e-002 1.968910e-002 4.058175e-006
      endloop
   endfacet
endsolid